<svg id="visual" viewBox="0 0 1440 1024" width="1440" height="1024" xmlns="http://www.w3.org/2000/svg" xmlns:xlink="http://www.w3.org/1999/xlink" version="1.1"><g transform="translate(729.9554414482898 522.017437864213)"><path d="M219.7 -370.3C258.6 -317 245.7 -211.7 264 -132.2C282.3 -52.6 331.7 1.1 356.1 73.6C380.5 146.1 380 237.4 338.1 302.2C296.3 366.9 213.2 405.1 137.6 392.5C62 380 -6.2 316.6 -77 285.3C-147.8 254 -221.3 254.7 -258.4 219.6C-295.5 184.5 -296.2 113.6 -324.7 35.6C-353.2 -42.4 -409.5 -127.6 -387.3 -177.2C-365.1 -226.8 -264.5 -240.8 -186.8 -276.4C-109.2 -311.9 -54.6 -369 17.9 -396.9C90.5 -424.8 180.9 -423.5 219.7 -370.3" fill="#0EABEC"></path></g></svg>