<svg width="85" height="96" viewBox="0 0 85 96" fill="none" xmlns="http://www.w3.org/2000/svg">
<path d="M67.5388 5.77939C71.7799 12.0255 70.3735 24.3653 72.3687 33.6817C74.3639 43.0099 79.7499 49.3028 82.4102 57.7989C85.0704 66.295 85.0159 76.9942 80.4477 84.588C75.8903 92.17 66.8301 96.6466 58.5876 95.17C50.3451 93.7052 42.9094 86.2755 35.1902 82.6075C27.4711 78.9395 19.4575 79.0216 15.4126 74.9083C11.3677 70.795 11.2913 62.4864 8.18404 53.3458C5.07675 44.2052 -1.06151 34.2208 1.3589 28.4083C3.77932 22.5958 14.7475 20.9552 23.219 16.7833C31.6795 12.6231 37.6324 5.93173 45.537 2.6622C53.4524 -0.607334 63.3085 -0.454989 67.5388 5.77939Z" fill="#0EABEC"/>
</svg>
