<svg width="1440" height="279" viewBox="0 0 1440 279" fill="none" xmlns="http://www.w3.org/2000/svg">
<path d="M0 66.3749L40 71.121C80 75.8671 160 85.3593 240 68.2734C320 51.1874 400 7.52339 480 13.8515C560 20.1796 640 76.4999 720 83.271C800 89.9789 880 47.2007 960 23.5335C1040 -0.070366 1120 -4.50004 1200 4.4859C1280 13.4086 1360 35.8101 1400 46.9476L1440 58.1484V279.633H1400C1360 279.633 1280 279.633 1200 279.633C1120 279.633 1040 279.633 960 279.633C880 279.633 800 279.633 720 279.633C640 279.633 560 279.633 480 279.633C400 279.633 320 279.633 240 279.633C160 279.633 80 279.633 40 279.633H0V66.3749Z" fill="#81A6D3"/>
</svg>
